# xmcd
# Track frame offsets:
# 150
# 18312
# 35172
# 48710
# 67235
# 84619
# 106231
# 122583
# 140910
#
# Disc length: 2087 seconds
# Revision: 0
# Processed by: cddbd v1.5.1PL0 Copyright (c) Steve Scherf et al.
# Submitted via: VisiTrax 2.9.10.228 - For more info visit www.synapsa.com
#
DISCID=86082509
DTITLE=Various Artist - Hits Monthly Nashville  PHN0408
DYEAR=1900
DGENRE=Karaoke
TTITLE0=Chesney, Kenny - I Go Back
TTITLE1=Emerick, Scotty - Watch, The
TTITLE2=Buffett and Black and Chesney - Hey Good Lookin'
TTITLE3=Coffey, Kellie - Dance With My Father
TTITLE4=Big and Rich - Save A Horse (Ride A Cowboy)
TTITLE5=McGraw, Tim - Live Like You Were Dyin'
TTITLE6=Johnson, Carolyn Dawn - Die Of A Broken Heart
TTITLE7=Evans, Sara - Suds In The Bucket
TTITLE8=Wilson, Gretchen - Here For The Party
EXTD=
EXTT0=
EXTT1=
EXTT2=
EXTT3=
EXTT4=
EXTT5=
EXTT6=
EXTT7=
EXTT8=
PLAYORDER=
